Patient4_TMGait_0pt4_02_left_20_EMG.mot
version=1
nRows=23
nColumns=33
inDegrees=no
endheader
time	1LAddLong	2LGlutMax	3LGlutMed	4LIliopsoas	5LSemiMemb	6LBicFemLong	7LRecFem	8LVastMed	9LVastLat	10LGasMed	11LTibAnt	12lTibPost	13LPeroneusLong	14LSol	15LExtDigLong	16LFlexDigLong	17RAddLong	18RGlutMax	19RGlutMed	20RIliopsoas	21RSemiMemb	22RBicFemLong	23RRecFem	24RVastMed	25RVastLat	26RGasMed	27RTibAnt	28RTibPost	29RPeroneusLong	30RSol	31RExtDigLong	32RFlexDigLong
28.25	-0.009918	-0.094147	0.05722	0.006104	-0.005493	0.039368	-0.031281	0.011139	0.009003	-0.065002	0.009918	0.000153	-0.003204	-0.071716	0.021973	0.00351	-0.003357	-0.070953	0.018158	-0.091248	0.028381	-0.034637	-0.15137	-0.083313	0.008087	0.02121	0.099182	0.019379	-0.13397	-0.31921	-0.003357	-0.007019
28.251	-0.000916	-0.13718	0.029602	0.014191	-0.032349	0.024109	-0.04364	0.004272	0.014648	-0.033264	0.014038	0.000763	-0.024872	-0.072174	0.015717	0.003052	0.005188	-0.16434	-0.24262	0.005493	0.016937	-0.052185	-0.18417	-0.12299	0.031281	0.026855	0.11002	0.009155	-0.23514	-0.32425	-0.003052	-0.010376
28.252	-0.000458	-0.12405	0.053406	0.01236	-0.12375	0	-0.044098	0.010071	0.019989	-0.063171	0.012665	-0.010681	-0.014038	-0.014648	0.025024	0.005341	0.006409	-0.068512	-0.36728	0.13672	0.005646	-0.044556	-0.16541	-0.10727	0.06958	0.014648	0.11566	0.002441	-0.35355	-0.14008	0.001678	-0.00946
28.253	0.011597	-0.11002	0.083008	0.016479	-0.13245	0.004425	-0.054321	0.011597	0.020599	-0.035553	0.007324	-0.009003	-0.016632	-0.045624	0.025635	0.011292	0.017853	-0.010376	-0.30151	0.074463	-0.005035	-0.072174	0.082855	-0.089874	0.080566	-0.004578	0.049744	-0.008698	-0.40237	-0.08667	-0.008545	-0.004883
28.254	0.029602	-0.12787	0.12985	0.00473	-0.023956	-0.020142	-0.056152	-0.001526	0.009155	-0.044861	0.012512	-0.002899	-0.022888	-0.081024	0.010529	0.009308	0.019379	-0.084839	-0.091095	0.10956	0.023041	-0.055084	0.21744	-0.065765	0.056305	-0.043335	0.071564	-0.008698	-0.31677	-0.19486	-0.000916	-0.005188
28.255	0.02243	-0.13596	0.044708	0.006714	0.039978	-0.019226	-0.04364	0.002136	0.019989	-0.022125	0.013733	-0.01709	-0.042572	-0.030975	0.01709	0.01236	0.019379	-0.089264	-0.025177	0.077667	0.019226	-0.042267	0.29556	-0.070343	0.047607	-0.042877	0.06897	-0.005493	-0.078278	-0.11322	-0.001984	-0.001678
28.256	0.02182	-0.12543	0.007782	0.004578	0.11795	-0.002441	-0.046234	0.001984	0.012665	-0.003357	0.015717	-0.014496	-0.032654	-0.046082	0.010376	-0.001984	0.019836	-0.012665	0.06134	0.030518	0.027924	-0.037689	0.26428	-0.052948	0.02533	-0.041351	-0.004272	-0.000305	0.3093	-0.023651	-0.001526	-0.008698
28.257	0.006256	-0.1239	-0.057678	0.008087	0.044861	-0.000305	-0.042267	0.006104	0.006409	0.002441	0.019836	-0.015717	-0.009613	-0.070343	0.008698	0.018768	0.021362	-0.10544	0.006561	-0.050354	0.014191	-0.044098	0.046844	-0.039978	-0.079041	-0.085907	0.005951	-0.009918	0.37262	0.33691	0.000763	-0.016479
28.258	0.007629	-0.13016	-0.066681	0.002899	0.036926	0.007172	-0.056915	0.005646	0.013885	-0.009918	0.009308	-0.002594	-0.013885	-0.097656	0.014954	0.009308	0.011597	-0.088501	0.050354	-0.063171	0.018005	-0.050507	-0.09964	-0.072937	-0.11169	-0.096436	-0.16144	0.000153	0.215	0.30838	-0.000916	-0.01236
28.259	0.015869	-0.13412	-0.059509	0.005493	-0.009003	-0.025024	-0.068817	0.002594	0.009155	-0.032654	0.019073	-0.002747	0.004272	-0.11932	0.00351	-0.00351	0.006866	-0.10208	0.10956	-0.015869	0.018311	-0.056152	-0.40024	-0.20142	-0.051727	-0.019684	0.088959	0.007019	0.2211	0.29159	-0.000916	-0.016479
28.26	0.01236	-0.15732	-0.069122	-0.006866	0.030365	-0.059052	-0.058441	0.004425	0.00351	-0.026855	0.006561	-0.007019	-0.015717	-0.085449	0.023041	-0.003967	0.003204	-0.12711	0.034027	0.083466	0.007324	-0.023346	-0.54291	-0.26154	-0.034943	0.02533	0.076904	0.00351	0.10834	0.37994	-0.001678	-0.014343
28.261	0.021057	-0.17303	-0.058899	0.003967	0.083771	-0.024109	-0.054321	0.006104	0.002441	-0.025787	0.010223	0.000916	-0.01236	-0.039063	0.017548	0.00412	0.004272	-0.078735	0.011139	0.15198	0.013123	-0.034637	-0.36026	-0.23773	-0.029907	-0.003662	0.21515	0.003357	0.019073	-0.029449	0.001984	-0.007324
28.262	0.014038	-0.17242	-0.057373	0.014954	0.056915	-0.050659	-0.055542	0.007629	0.009613	-0.02655	0.002594	-0.005035	-0.014343	-0.063782	0.007019	0.003052	0.008698	-0.089264	-0.020294	0.069427	0.014801	-0.040588	0.001373	-0.041809	-0.072327	-0.019684	0.75928	0.000153	0.071106	-0.29465	-0.00351	0.000458
28.263	0.014496	-0.15549	-0.12787	0.014496	0.036011	-0.039673	-0.080261	0.002136	0	-0.036011	0.018311	-0.007629	-0.012054	-0.08606	0.01236	0.010223	0.006866	-0.099182	-0.17319	-0.01358	0.00473	-0.025024	0.35141	-0.002747	-0.18097	0.013275	0.42893	0.003662	0.28885	-0.19089	-0.002899	-0.00473
28.264	0.026703	-0.1709	-0.18448	0.009155	0.0354	-0.032654	-0.083466	0.006714	0.000916	-0.046082	0.010529	-0.013123	-0.009766	-0.042877	0.007782	0.00351	0.022125	-0.10147	-0.32364	-0.089874	0.009308	-0.049591	0.37613	-0.049438	-0.19028	0.015411	-0.56152	0.002747	0.45609	-0.1413	0.003204	0.001068
28.265	0.062866	-0.16403	-0.1384	0.00885	0.030823	0.001831	-0.08255	0.007324	-0.000458	-0.048218	0.00351	-0.016785	-0.019531	-0.07843	0.014954	-0.000916	0.005035	-0.0737	-0.22919	-0.095825	0.00824	-0.044708	0.23224	0.013275	-0.17868	0.017548	-0.7547	-0.004883	0.53726	-0.003662	-0.002899	0.001831
28.266	0.034027	-0.15732	-0.076599	0.001984	0.010376	0.047455	-0.083618	0.019226	-0.009155	-0.043945	0.015869	-0.007019	-0.009766	-0.081787	0.020447	-0.011597	0.002747	-0.06546	0.083923	-0.040436	0.015259	-0.03952	0.27405	0.12528	-0.16556	0.018005	-0.16754	-0.001221	0.13092	-0.022125	-0.002136	-0.003357
28.267	0.036926	-0.16174	0.009308	0.003204	0.016327	0.050507	-0.078888	0.012665	-0.003052	-0.047607	0.010681	-0.010681	-0.028534	-0.025787	0.014038	0.008087	0.000305	-0.081177	-0.112	0.053406	0.015411	-0.044708	-0.18524	0.0354	-0.08316	0.016174	0.44983	0.000763	0.021973	-0.060883	-0.002289	-0.001221
28.268	-0.007172	-0.18234	0.071564	0.000153	0.04715	0.054932	-0.069427	0.020447	-0.010223	-0.0383	0.015717	-0.02182	-0.016479	-0.028381	0.024109	-0.000458	-0.001831	-0.020294	0.15472	0.028229	0.021515	-0.013733	-0.63248	0.054169	0.029297	0.003815	0.48477	-0.010529	0.045319	-0.096436	-0.002441	0.002441
28.269	-0.02121	-0.19302	0.008698	0.019379	0.014801	0.050812	-0.075226	0.076599	-0.00946	-0.037231	0.011749	-0.005341	-0.003815	-0.032654	0.015411	0.013885	-0.010529	-0.038147	-0.023651	-0.040131	0.026398	-0.055389	-0.77011	0.014343	0.17532	-0.006409	0.21759	-0.004425	-0.44922	-0.0177	-0.000458	-0.005341
28.27	-0.013733	-0.16251	-0.019226	0.020752	-0.005035	0.010986	-0.06546	0.001831	-0.011444	-0.040436	0.007629	-0.022888	0.002289	-0.018005	0.018311	0.01709	0.012817	-0.063019	0.06958	-0.12238	-0.000916	-0.065765	-0.63995	-0.094147	0.24948	-0.006714	-0.061188	-0.000305	-1.1591	-0.07309	-0.003815	-0.005951
28.271	0.009155	-0.1561	-0.004425	0.010529	-0.014801	0.020447	-0.069275	0.019073	-0.001984	-0.045013	0.007324	-0.027771	0.007782	-0.014648	0.024567	0.018616	0.000153	-0.088348	0.39978	-0.11002	0.013885	-0.065308	-0.33112	0.25528	0.2948	0.00351	0.04303	0.001221	-0.6871	-0.11261	-0.00351	-0.000305
28.272	0.010681	-0.13351	0.018005	-0.01236	-0.08606	0.001984	-0.096436	0.007019	0.002441	-0.036926	0.005798	-0.007019	-0.002289	0.011444	0.021515	0.006409	0.022278	-0.039215	-0.077362	-0.088501	0.005493	-0.079346	-0.14725	0.22354	0.15778	0.007629	-0.052643	0	0.45898	-0.018158	-0.008392	-0.006714
